<svg xmlns="http://www.w3.org/2000/svg" width="16" height="16" viewBox="0 0 16 16" fill="none">
<path d="M6.9395 8L4.81818 5.87868L5.87884 4.81802L8.00016 6.93934L10.1215 4.81802L11.1821 5.87868L9.06082 8L11.1821 10.1213L10.1215 11.182L8.00016 9.06066L5.87884 11.182L4.81818 10.1213L6.9395 8ZM13.3035 13.3033C10.3744 16.2323 5.62587 16.2323 2.69686 13.3033C-0.232158 10.3743 -0.232158 5.62571 2.69686 2.6967C5.62587 -0.232314 10.3744 -0.232314 13.3035 2.6967C16.2325 5.62571 16.2325 10.3743 13.3035 13.3033ZM12.2428 12.2426C13.368 11.1174 14.0002 9.5913 14.0002 8C14.0002 6.4087 13.368 4.88258 12.2428 3.75736C11.1176 2.63214 9.59146 2 8.00016 2C6.40886 2 4.88273 2.63214 3.75752 3.75736C2.6323 4.88258 2.00016 6.4087 2.00016 8C2.00016 9.5913 2.6323 11.1174 3.75752 12.2426C4.88273 13.3679 6.40886 14 8.00016 14C9.59146 14 11.1176 13.3679 12.2428 12.2426Z" fill="currentColor"/>
</svg>