<svg width="17" height="14" viewBox="0 0 17 14" fill="none" xmlns="http://www.w3.org/2000/svg">
<path d="M15.5 3.25H16.25V10.75H15.5V13C15.5 13.4142 15.1642 13.75 14.75 13.75H1.25C0.83579 13.75 0.5 13.4142 0.5 13V1C0.5 0.58579 0.83579 0.25 1.25 0.25H14.75C15.1642 0.25 15.5 0.58579 15.5 1V3.25ZM14 10.75H9.50002C7.42897 10.75 5.75 9.07105 5.75 7C5.75 4.92894 7.42897 3.25 9.50002 3.25H14V1.75H2V12.25H14V10.75ZM14.75 9.25V4.75H9.50002C8.25734 4.75 7.25002 5.75733 7.25002 7C7.25002 8.24267 8.25734 9.25 9.50002 9.25H14.75ZM9.50002 6.25H11.75V7.75H9.50002V6.25Z" fill="currentColor"/>
</svg>
