<svg xmlns="http://www.w3.org/2000/svg" width="18" height="18" viewBox="0 0 18 18" fill="none">
    <path d="M13.4125 14.4724C12.1365 15.2814 10.6233 15.7499 9.00071 15.7499C4.95658 15.7499 1.5921 12.8401 0.886719 8.99991C1.21423 7.21687 2.11498 5.63443 3.39084 4.45069L1.04573 2.10559L2.1064 1.04492L16.9557 15.8941L15.895 16.9549L13.4125 14.4724ZM4.45219 5.51203C3.45554 6.41987 2.72884 7.62516 2.41757 8.99991C3.10565 12.0388 5.82394 14.2499 9.00071 14.2499C10.2003 14.2499 11.3345 13.9346 12.3187 13.3786L10.7975 11.8573C10.2772 12.1852 9.66109 12.3749 9.00071 12.3749C7.13672 12.3749 5.62568 10.8638 5.62568 8.99991C5.62568 8.33946 5.81537 7.72333 6.14322 7.20307L4.45219 5.51203ZM9.68591 10.7458L7.25483 8.31471C7.17146 8.52696 7.12568 8.75803 7.12568 8.99991C7.12568 10.0354 7.96519 10.8749 9.00071 10.8749C9.24251 10.8749 9.47366 10.8291 9.68591 10.7458ZM15.6056 12.4441L14.5325 11.371C15.0244 10.6699 15.387 9.86871 15.5838 8.99991C14.8957 5.96089 12.1774 3.74988 9.00071 3.74988C8.36629 3.74988 7.75016 3.83806 7.16486 4.00339L5.98133 2.81987C6.91644 2.45195 7.93496 2.24988 9.00071 2.24988C13.0448 2.24988 16.4093 5.1597 17.1147 8.99991C16.8805 10.2746 16.3533 11.4469 15.6056 12.4441ZM8.79266 5.63119C8.86144 5.627 8.93081 5.62488 9.00071 5.62488C10.8646 5.62488 12.3757 7.13592 12.3757 8.99991C12.3757 9.06973 12.3735 9.13911 12.3694 9.20788L8.79266 5.63119Z" fill="currentColor"/>
</svg>