<svg xmlns="http://www.w3.org/2000/svg" width="18" height="18" viewBox="0 0 18 18" fill="none">
  <path d="M9 16.5C4.85786 16.5 1.5 13.1421 1.5 9C1.5 4.85786 4.85786 1.5 9 1.5C13.1421 1.5 16.5 4.85786 16.5 9C16.5 13.1421 13.1421 16.5 9 16.5ZM9 15C12.3137 15 15 12.3137 15 9C15 5.68629 12.3137 3 9 3C5.68629 3 3 5.68629 3 9C3 12.3137 5.68629 15 9 15ZM7.96642 6.31094L11.6256 8.7504C11.7634 8.84228 11.8007 9.02857 11.7088 9.16642C11.6868 9.19935 11.6585 9.22762 11.6256 9.2496L7.96642 11.689C7.82857 11.781 7.64227 11.7437 7.5504 11.6059C7.51755 11.5566 7.5 11.4987 7.5 11.4394V6.56056C7.5 6.39487 7.63432 6.26056 7.8 6.26056C7.85925 6.26056 7.91715 6.27808 7.96642 6.31094Z" fill="currentColor"/>
</svg>