<svg width="20" height="20" viewBox="0 0 20 20" fill="none" xmlns="http://www.w3.org/2000/svg">
<path d="M1.3375 15.0007C0.905255 14.252 0.580815 13.4707 0.359375 12.6746C1.33184 12.1784 1.99777 11.1673 1.99777 10.0007C1.99777 8.83499 1.33284 7.82449 0.361575 7.3279C0.808295 5.717 1.65661 4.21676 2.86278 2.9905C3.77874 3.58465 4.9874 3.65583 5.99777 3.07249C7.00813 2.48915 7.55081 1.40684 7.49424 0.316527C9.15934 -0.114913 10.8827 -0.0994733 12.5011 0.319107C12.4455 1.40855 12.9881 2.48961 13.9977 3.07249C15.0081 3.65581 16.2167 3.58465 17.1326 2.99056C17.7113 3.58035 18.2257 4.252 18.658 5.0007C19.0902 5.74939 19.4147 6.53074 19.6361 7.32677C18.6636 7.82296 17.9977 8.83409 17.9977 10.0007C17.9977 11.1665 18.6626 12.1769 19.6339 12.6735C19.1872 14.2844 18.3389 15.7846 17.1327 17.0109C16.2167 16.4168 15.0081 16.3456 13.9977 16.9289C12.9873 17.5122 12.4447 18.5946 12.5012 19.6849C10.8362 20.1163 9.11285 20.1009 7.49438 19.6823C7.54996 18.5928 7.00734 17.5118 5.99777 16.9289C4.98742 16.3456 3.77884 16.4167 2.86288 17.0108C2.28421 16.421 1.76976 15.7494 1.3375 15.0007ZM6.99776 15.1969C8.08914 15.827 8.87295 16.8232 9.24835 17.9664C9.74664 18.0138 10.2482 18.0145 10.7466 17.968C11.1218 16.8242 11.9058 15.8273 12.9977 15.1969C14.0896 14.5664 15.345 14.386 16.5232 14.6329C16.8126 14.2245 17.0628 13.7897 17.2709 13.3345C16.4686 12.4378 15.9977 11.2609 15.9977 10.0007C15.9977 8.74049 16.4686 7.56369 17.2709 6.66699C17.1668 6.44099 17.0518 6.21871 16.9259 6.0007C16.8 5.78268 16.665 5.57197 16.5213 5.36891C15.3437 5.61525 14.0891 5.43463 12.9977 4.80454C11.9063 4.17444 11.1226 3.17817 10.7471 2.03504C10.2489 1.98763 9.74724 1.98695 9.24895 2.03341C8.87364 3.1772 8.08964 4.17413 6.99776 4.80454C5.90584 5.43496 4.65049 5.61543 3.47232 5.36852C3.18289 5.7769 2.93268 6.21166 2.72461 6.66686C3.52685 7.5636 3.99777 8.74049 3.99777 10.0007C3.99777 11.2609 3.52688 12.4377 2.72461 13.3344C2.82872 13.5604 2.94368 13.7827 3.06956 14.0007C3.19543 14.2187 3.33045 14.4294 3.47416 14.6325C4.65181 14.3862 5.90642 14.5668 6.99776 15.1969ZM9.99774 13.0007C8.34094 13.0007 6.99776 11.6576 6.99776 10.0007C6.99776 8.34389 8.34094 7.0007 9.99774 7.0007C11.6546 7.0007 12.9977 8.34389 12.9977 10.0007C12.9977 11.6576 11.6546 13.0007 9.99774 13.0007ZM9.99774 11.0007C10.55 11.0007 10.9977 10.553 10.9977 10.0007C10.9977 9.44839 10.55 9.00069 9.99774 9.00069C9.44544 9.00069 8.99774 9.44839 8.99774 10.0007C8.99774 10.553 9.44544 11.0007 9.99774 11.0007Z" fill="currentColor"/>
</svg>
