<svg width="16" height="16" viewBox="0 0 16 16" fill="none" xmlns="http://www.w3.org/2000/svg">
<path d="M13 0.5C13.4142 0.5 13.75 0.83579 13.75 1.25V4.06775L7.0009 10.8172L6.99625 13.9963L10.181 14.0009L13.75 10.4315V14.75C13.75 15.1642 13.4142 15.5 13 15.5H1C0.58579 15.5 0.25 15.1642 0.25 14.75V1.25C0.25 0.83579 0.58579 0.5 1 0.5H13ZM14.3337 5.60571L15.3943 6.66635L9.56065 12.5L8.49842 12.4984L8.5 11.4394L14.3337 5.60571ZM7 8H3.25V9.5H7V8ZM9.25 5H3.25V6.5H9.25V5Z" fill="currentColor"/>
</svg>
