<svg width="17" height="17" viewBox="0 0 17 17" fill="none" xmlns="http://www.w3.org/2000/svg">
<path d="M0.5 16.5C0.5 13.1863 3.18629 10.5 6.5 10.5C9.81373 10.5 12.5 13.1863 12.5 16.5H0.5ZM6.5 9.75C4.01375 9.75 2 7.73625 2 5.25C2 2.76375 4.01375 0.75 6.5 0.75C8.98625 0.75 11 2.76375 11 5.25C11 7.73625 8.98625 9.75 6.5 9.75ZM12.0221 11.4249C14.3362 12.0163 16.0759 14.0426 16.2377 16.5H14C14 14.5427 13.2502 12.7604 12.0221 11.4249ZM10.5051 9.71767C11.7296 8.61915 12.5 7.02455 12.5 5.25C12.5 4.187 12.2235 3.18856 11.7387 2.32265C13.4565 2.66548 14.75 4.18099 14.75 6C14.75 8.07188 13.0719 9.75 11 9.75C10.8322 9.75 10.667 9.73897 10.5051 9.71767Z" fill="currentColor"/>
</svg>
