<svg width="12" height="17" viewBox="0 0 12 17" fill="none" xmlns="http://www.w3.org/2000/svg">
<path d="M0 16.5C0 13.1863 2.68629 10.5 6 10.5C9.31373 10.5 12 13.1863 12 16.5H0ZM6.75 12.0623V15H10.2439C9.70673 13.4801 8.3763 12.335 6.75 12.0623ZM5.25 15V12.0623C3.62374 12.335 2.29325 13.4801 1.75606 15H5.25ZM6 9.75C3.51375 9.75 1.5 7.73625 1.5 5.25C1.5 2.76375 3.51375 0.75 6 0.75C8.48625 0.75 10.5 2.76375 10.5 5.25C10.5 7.73625 8.48625 9.75 6 9.75ZM6 8.25C7.6578 8.25 9 6.90782 9 5.25C9 3.59218 7.6578 2.25 6 2.25C4.34218 2.25 3 3.59218 3 5.25C3 6.90782 4.34218 8.25 6 8.25Z" fill="currentColor"/>
</svg>
